<?xml version="1.0" encoding="utf-8"?>
<!-- Generator: Adobe Illustrator 24.0.3, SVG Export Plug-In . SVG Version: 6.00 Build 0)  -->
<svg version="1.0" id="Camada_1" xmlns="http://www.w3.org/2000/svg" xmlns:xlink="http://www.w3.org/1999/xlink" x="0px" y="0px"
	 viewBox="0 0 32 32" style="enable-background:new 0 0 32 32;" xml:space="preserve">
<style type="text/css">
	.st0{fill:#007CF6;}
</style>
<title></title>
<g id="Icons">
	<path class="st0" d="M21,24c-0.6,0-1,0.4-1,1v3H6V4h14v3c0,0.6,0.4,1,1,1s1-0.4,1-1V3c0-0.6-0.4-1-1-1H5C4.4,2,4,2.4,4,3v26
		c0,0.6,0.4,1,1,1h16c0.6,0,1-0.4,1-1v-4C22,24.4,21.6,24,21,24z"/>
	<circle class="st0" cx="9" cy="16" r="1"/>
	<path class="st0" d="M27.9,16.4c0.1-0.2,0.1-0.5,0-0.7c0,0,0-0.1-0.1-0.1c0-0.1,0-0.1-0.1-0.1l-4-5c-0.3-0.4-1-0.5-1.4-0.2
		c-0.4,0.3-0.5,1-0.2,1.4c0,0,0,0,0,0l2.7,3.4H17c-0.6,0-1,0.4-1,1c0,0.6,0.4,1,1,1h7.9l-2.7,3.4c-0.3,0.4-0.3,1.1,0.2,1.4
		c0.2,0.1,0.4,0.2,0.6,0.2c0.3,0,0.6-0.1,0.8-0.4l4-5c0,0,0.1-0.1,0.1-0.2C27.9,16.4,27.9,16.4,27.9,16.4z"/>
</g>
</svg>
