<?xml version="1.0" encoding="utf-8"?>
<!-- Generator: Adobe Illustrator 24.0.3, SVG Export Plug-In . SVG Version: 6.00 Build 0)  -->
<svg version="1.0" id="Layer_1" xmlns="http://www.w3.org/2000/svg" xmlns:xlink="http://www.w3.org/1999/xlink" x="0px" y="0px"
	 viewBox="0 0 150 150" style="enable-background:new 0 0 150 150;" xml:space="preserve">
<style type="text/css">
	.st0{fill:#13818D;}
</style>
<title></title>
<circle class="st0" cx="75" cy="75" r="65"/>
<circle class="st0" cx="75" cy="75" r="45.3"/>
<path d="M75,112.3c-20.6,0-37.3-16.7-37.3-37.3S54.4,37.7,75,37.7s37.3,16.7,37.3,37.3v0C112.3,95.6,95.6,112.3,75,112.3z M75,38.8
	C55,38.8,38.8,55,38.8,75S55,111.2,75,111.2S111.2,95,111.2,75C111.1,55,95,38.9,75,38.8z"/>
<path d="M72.7,46.8c-0.3,0-0.5,0.2-0.5,0.5c0,0,0,0,0,0v9.6l0,0v0.2c0,0.6-0.4,1-1,1s-1-0.4-1-1v-0.2l0,0v-9.6
	c0-0.3-0.2-0.5-0.5-0.5s-0.5,0.2-0.5,0.5v9.8c0,0.6-0.4,1-1,1s-1-0.4-1-1v-9.8c0-0.3-0.2-0.5-0.5-0.5S66,47,66,47.3v9.8
	c0,0.6-0.4,1-1,1s-1-0.4-1-1v-0.2l0,0v-9.6c0-0.3-0.2-0.5-0.5-0.5c-0.3,0-0.5,0.2-0.5,0.5v9.6l0,0v6.6c0,2.3,1.5,4.4,3.7,5
	c0.2,2.7,0.3,5.4,0.2,8.2c-0.2,6-1,13.7-0.9,17.3c0.1,2.5,0.8,10.1,0.8,10.1c0,0.8,0.7,1.5,1.5,1.5c0.8,0,1.5-0.7,1.5-1.5
	c0,0,0.7-7.7,0.8-10.2c0.1-3.6-0.7-11.4-1-17.4c-0.1-2.7-0.1-5.4,0.2-8.1c2.2-0.5,3.7-2.5,3.7-4.8v-5.2l0,0V47.3
	C73.2,47,73,46.8,72.7,46.8z"/>
<path d="M79.2,65.2c0.1,4.8,1.6,9.5,4.3,13.5c0,0,0,5.9,0,7.4c-0.1,4.5-0.8,17.8-0.8,17.8c0.5,0.7,1.3,1.1,2.2,1.2
	c0.9,0,1.7-0.5,2.2-1.2c0,0-0.5-13.3-0.6-17.8c-0.2-10.4-0.2-41.7-0.2-41.7S79.2,51.6,79.2,65.2z"/>
</svg>
