<?xml version="1.0" encoding="utf-8"?>
<!-- Generator: Adobe Illustrator 24.0.3, SVG Export Plug-In . SVG Version: 6.00 Build 0)  -->
<svg version="1.0" id="Camada_1" xmlns="http://www.w3.org/2000/svg" xmlns:xlink="http://www.w3.org/1999/xlink" x="0px" y="0px"
	 viewBox="0 0 1920 1080" style="enable-background:new 0 0 1920 1080;" xml:space="preserve">
<style type="text/css">
	.st0{fill:#FFFFFF;}
	.st1{opacity:0.8;}
	.st2{fill:#FF0000;}
	.st3{fill:#00FA9A;}
</style>
<g>
	<path class="st0" d="M331.7,194.7H300v-65.8h-61.7v65.8h-31.6V41.1h31.6v62.2H300V41.1h31.6V194.7z M451.8,128.1H391v41.1h71.3
		v25.4H359.4V41.1h102.7v25.6H391v36.6h60.8V128.1z M567.6,163h-55.5l-10.5,31.6h-33.6l57.2-153.6h29.3l57.5,153.6h-33.6L567.6,163z
		 M520.7,137.4h38.4l-19.3-57.5L520.7,137.4z M657.9,169.3h67.2v25.4h-98.8V41.1h31.6V169.3z M837.2,66.7h-47v127.9h-31.6V66.7
		h-46.4V41.1h125.1V66.7z M980.3,194.7h-31.6v-65.8H887v65.8h-31.6V41.1H887v62.2h61.7V41.1h31.6V194.7z M1171.1,66.7h-47v127.9
		h-31.6V66.7H1046V41.1h125.1V66.7z M1246.1,138.5h-25.2v56.2h-31.6V41.1h57.1c18.1,0,32.1,4,42,12.1c9.8,8.1,14.8,19.5,14.8,34.3
		c0,10.5-2.3,19.2-6.9,26.3c-4.5,7-11.4,12.5-20.6,16.7l33.2,62.8v1.5h-34L1246.1,138.5z M1220.9,112.8h25.5c7.9,0,14.1-2,18.5-6
		c4.4-4.1,6.5-9.7,6.5-16.8c0-7.2-2.1-12.9-6.2-17.1c-4.1-4.1-10.4-6.2-18.9-6.2h-25.4V112.8z M1413.9,163h-55.5l-10.5,31.6h-33.6
		l57.2-153.6h29.3l57.5,153.6h-33.6L1413.9,163z M1367,137.4h38.4L1386,79.9L1367,137.4z M1590.8,143.5c-1.2,16.5-7.3,29.5-18.4,39
		c-11,9.5-25.5,14.2-43.5,14.2c-19.7,0-35.2-6.6-46.5-19.8c-11.2-13.3-16.9-31.5-16.9-54.6v-9.4c0-14.8,2.6-27.8,7.8-39
		c5.2-11.2,12.6-19.9,22.3-25.8c9.7-6,21-9.1,33.8-9.1c17.7,0,32,4.7,42.8,14.2c10.8,9.5,17.1,22.8,18.8,40h-31.6
		c-0.8-9.9-3.6-17.1-8.3-21.5c-4.7-4.5-11.9-6.8-21.6-6.8c-10.5,0-18.5,3.8-23.7,11.4c-5.2,7.5-7.9,19.2-8,35.1v11.6
		c0,16.6,2.5,28.7,7.5,36.4c5.1,7.7,13,11.5,23.8,11.5c9.8,0,17.1-2.2,21.8-6.6c4.8-4.5,7.6-11.4,8.3-20.8H1590.8z M1659.6,133.1
		l-16.5,17.7v43.9h-31.6V41.1h31.6v69.6l13.9-19.1l39.1-50.5h38.9l-54.5,68.2l56.1,85.3h-37.7L1659.6,133.1z"/>
	<path class="st0" d="M889,546.3c35.1,0,63.6-25,63.6-55.8c0-30.8-28.5-55.8-63.6-55.8c-35.1,0-63.6,25-63.6,55.8
		C825.4,521.3,853.9,546.3,889,546.3z"/>
	<path class="st0" d="M1043.1,567.2c-15.9-7-35-2.1-42.9,11.9l-27.8,46l-122.4-67.7c-4.8-2.8-10.3-4.2-16.7-4.2H698.3
		c-11.9,0-22.2,5.6-27.8,14.7l-51.6,83.7c-8.7,13.3-2.4,30.7,12.7,37.7c4.8,2.1,10.3,3.5,15.1,3.5c11.1,0,22.2-5.6,27.8-14.7
		l42.9-69.1h46.9L623.6,839.3H491.7c-17.5,0-31.8,12.6-31.8,27.9c0,15.3,14.3,27.9,31.8,27.9h151c11.9,0,22.2-5.6,27.8-14.7l55.6-90
		l91.4,74.7l-7.1,140.2c-1.6,15.3,11.9,28.6,29.4,29.3c0.8,0,0.8,0,1.6,0c16.7,0,31-11.9,31.8-26.5l8-153.5
		c0.8-8.4-3.2-16-10.3-21.6l-77.1-62.8l81-132.6l92.2,50.9c7.1,4.2,16.7,5.6,25.4,3.5c8.7-2.1,15.9-7,19.9-14l43.7-73.3
		C1064.6,591.6,1059,574.9,1043.1,567.2z"/>
	<g class="st1">
		<path class="st2" d="M1300,884.7c-1.9,0-3.9-0.4-5.7-1.1c-1.8-0.7-3.4-1.8-4.8-3.2c-21-21.3-126.2-127.8-136.8-145.3
			c-13-21.5-17.6-47.2-12.9-71.9c4.7-24.7,18.4-46.9,38.5-62.1c9.6-7,20.6-12,32.2-14.5c11.6-2.5,23.6-2.6,35.3-0.3
			c21.9,4.5,41.2,17.1,54.3,35.3c13-18.2,32.4-30.7,54.3-35.3c11.7-2.4,23.7-2.3,35.3,0.3c11.6,2.5,22.6,7.5,32.2,14.5
			c20,15.2,33.7,37.3,38.5,62.1c4.7,24.7,0.1,50.4-12.9,71.9c-10.7,17.6-115.8,124-136.8,145.3c-1.4,1.4-3,2.4-4.8,3.2
			C1303.8,884.3,1301.9,884.7,1300,884.7z M1228.7,614.2c-12,0-23.6,3.9-33.3,10.9c-14.1,10.8-23.7,26.5-26.9,44
			c-3.2,17.5,0.1,35.5,9.4,50.7c6.1,10,71.8,78.2,122.1,129.2c50.3-51,116-119.2,122.1-129.2l12.6,7.4l-12.6-7.4
			c9.3-15.2,12.6-33.2,9.4-50.7c-3.2-17.5-12.8-33.1-26.9-44c-6.3-4.6-13.5-7.9-21.1-9.5c-7.6-1.7-15.5-1.8-23.1-0.3
			c-8.3,1.8-16.2,5.3-23.1,10.3c-6.9,5-12.7,11.4-16.9,18.7c-2.6,4.7-4.8,9.7-6.6,14.8c-1.1,2.8-2.9,5.2-5.4,6.9
			c-2.5,1.7-5.4,2.6-8.4,2.6s-5.9-0.9-8.4-2.6c-2.5-1.7-4.3-4.1-5.4-6.9c-1.8-5.1-4-10-6.6-14.8c-4.3-7.3-10-13.7-16.8-18.6
			c-6.8-5-14.7-8.4-22.9-10.2C1236.1,614.7,1232.4,614.2,1228.7,614.2z"/>
		<path class="st3" d="M1307.3,783.9c-2.6,0-5.1-0.7-7.3-2c-2.2-1.3-4-3.1-5.3-5.4l-32.6-59.8l-16,24c-1.4,2-3.3,3.6-5.5,4.7
			c-2.2,1.1-4.6,1.6-7.1,1.6h-81c-3.9,0-7.7-1.6-10.4-4.3c-2.8-2.8-4.3-6.5-4.3-10.4c0-3.9,1.6-7.7,4.3-10.4
			c2.8-2.8,6.5-4.3,10.4-4.3h73.1l25.1-37.7c1.4-2.1,3.3-3.8,5.6-5c2.3-1.2,4.8-1.7,7.3-1.6c2.5,0.1,5,0.8,7.1,2.1
			c2.1,1.3,3.9,3.1,5.2,5.3l31.8,59l8.8-14.8c1.3-2.2,3.1-4.1,5.4-5.4c2.2-1.3,4.7-2,7.3-2h36.8c3.9,0,7.7,1.6,10.4,4.3
			c2.8,2.8,4.3,6.5,4.3,10.4c0,3.9-1.5,7.7-4.3,10.4c-2.8,2.8-6.5,4.3-10.4,4.3h-28.5l-17.8,29.5c-1.3,2.2-3.1,4.1-5.3,5.4
			C1312.4,783.2,1309.9,783.9,1307.3,783.9z"/>
	</g>
</g>
</svg>
