<?xml version="1.0" encoding="utf-8"?>
<!-- Generator: Adobe Illustrator 24.0.3, SVG Export Plug-In . SVG Version: 6.00 Build 0)  -->
<svg version="1.0" id="Camada_1" xmlns="http://www.w3.org/2000/svg" xmlns:xlink="http://www.w3.org/1999/xlink" x="0px" y="0px"
	 viewBox="0 0 12 12" style="enable-background:new 0 0 12 12;" xml:space="preserve">
<style type="text/css">
	.st0{fill:#FFFFFF;}
	.st1{fill-rule:evenodd;clip-rule:evenodd;fill:#FFFFFF;}
</style>
<path class="st0" d="M2.6,6c0-1.9,1.5-3.4,3.4-3.4S9.4,4.1,9.4,6S7.9,9.4,6,9.4S2.6,7.9,2.6,6z"/>
<path class="st1" d="M6.2,0.2C6.1,0.1,6,0.1,5.9,0.2c0,0,0,0,0,0L5.2,1.2C5.1,1.2,5,1.3,4.9,1.2l-1-0.6c-0.1-0.1-0.2,0-0.3,0.1
	c0,0,0,0,0,0.1L3.4,1.8C3.4,1.9,3.3,2,3.2,2L2,1.8C1.9,1.8,1.8,1.9,1.8,2c0,0,0,0,0,0.1L2,3.2c0,0.1,0,0.2-0.1,0.2L0.7,3.6
	c-0.1,0-0.2,0.1-0.1,0.2c0,0,0,0,0,0.1l0.6,1c0.1,0.1,0,0.2-0.1,0.2L0.2,5.8C0.1,5.9,0.1,6,0.2,6.1c0,0,0,0,0,0l0.9,0.7
	C1.2,6.9,1.3,7,1.2,7.1l-0.6,1c-0.1,0.1,0,0.2,0.1,0.3c0,0,0,0,0.1,0l1.1,0.3C1.9,8.6,2,8.7,2,8.8L1.8,10c0,0.1,0.1,0.2,0.2,0.2
	c0,0,0,0,0.1,0L3.2,10c0.1,0,0.2,0,0.2,0.1l0.3,1.1c0,0.1,0.1,0.2,0.2,0.1c0,0,0,0,0.1,0l1-0.6c0.1-0.1,0.2,0,0.2,0.1l0.7,0.9
	c0.1,0.1,0.2,0.1,0.3,0c0,0,0,0,0,0l0.7-0.9c0.1-0.1,0.2-0.1,0.3-0.1l1,0.6c0.1,0.1,0.2,0,0.3-0.1c0,0,0,0,0-0.1l0.3-1.1
	c0-0.1,0.1-0.2,0.2-0.1l1.1,0.2c0.1,0,0.2-0.1,0.2-0.2c0,0,0,0,0-0.1L10,8.8c0-0.1,0-0.2,0.1-0.2l1.1-0.3c0.1,0,0.2-0.1,0.1-0.2
	c0,0,0,0,0-0.1l-0.6-1c-0.1-0.1,0-0.2,0.1-0.2l0.9-0.7c0.1-0.1,0.1-0.2,0-0.3c0,0,0,0,0,0l-0.9-0.7c-0.1-0.1-0.1-0.2-0.1-0.3l0.6-1
	c0.1-0.1,0-0.2-0.1-0.3c0,0,0,0-0.1,0l-1.1-0.3c-0.1,0-0.2-0.1-0.1-0.2L10.2,2c0-0.1-0.1-0.2-0.2-0.2c0,0,0,0-0.1,0L8.8,2
	c-0.1,0-0.2,0-0.2-0.1L8.4,0.7c0-0.1-0.1-0.2-0.2-0.1c0,0,0,0-0.1,0l-1,0.6C7,1.3,6.9,1.2,6.8,1.2L6.2,0.2L6.2,0.2z M6,1.9
	C3.7,1.9,1.9,3.7,1.9,6s1.8,4.1,4.1,4.1s4.1-1.8,4.1-4.1S8.3,1.9,6,1.9z"/>
</svg>
