<?xml version="1.0" encoding="utf-8"?>
<!-- Generator: Adobe Illustrator 24.0.3, SVG Export Plug-In . SVG Version: 6.00 Build 0)  -->
<svg version="1.0" id="Layer_1" xmlns="http://www.w3.org/2000/svg" xmlns:xlink="http://www.w3.org/1999/xlink" x="0px" y="0px"
	 viewBox="0 0 100 100" style="enable-background:new 0 0 100 100;" xml:space="preserve">
<style type="text/css">
	.st0{fill:#A2A2A2;}
</style>
<g>
	<path class="st0" d="M86.9,18.2l-17.6-5.4C65.5,6.4,58,2.3,50,2.3c-8.2,0-15.6,4-19.4,10.5l-17.6,5.3C8.5,19.5,5.4,24,5.4,28.6
		c0,0.6,0.1,1.3,0.2,1.9l11,56.7c1,5.2,6.2,9.7,11.5,9.7h44c5.3,0,10.5-4.5,11.5-9.7l10.9-56.5c0.1-0.6,0.2-1.4,0.2-2
		C94.6,24.1,91.5,19.6,86.9,18.2z M67.7,28.1c-0.4,2-1.2,3.9-2.2,5.6l-3.1-2.2c-0.3,0.6-0.7,1.1-1.1,1.6l3.1,2.2
		c-1.2,1.6-2.7,3-4.4,4.2l-1.9-3.3c-0.5,0.4-1.1,0.7-1.6,1l1.9,3.3c-2.2,1.2-4.4,1.9-7.4,2v-3.8c0,0-0.7,0-1,0c-0.3,0-1,0-1,0v3.8
		c-2-0.1-4.1-0.6-5.9-1.3l1.6-3.5c-0.6-0.2-1.2-0.5-1.7-0.8l-1.6,3.5c-1.8-1-3.4-2.3-4.8-3.8l2.9-2.4c-0.4-0.5-0.8-1-1.2-1.5
		L35.4,35c-1.2-1.6-2.1-3.4-2.7-5.4l3.7-1c-0.2-0.6-0.3-1.2-0.4-1.9l-3.7,1c-0.2-1.1-0.3-2.3-0.3-3.5c0-0.9,0.1-1.7,0.2-2.5l3.7,0.7
		c0.1-0.6,0.2-1.3,0.4-1.9L32.5,20c0.5-1.9,1.3-3.8,2.3-5.4l3.1,2.2c0.3-0.5,0.7-1.1,1.1-1.5L35.9,13c1.2-1.5,2.7-2.8,4.4-3.9
		l1.9,3.3c0.5-0.3,1.1-0.7,1.7-0.9l-1.9-3.3c0.8-0.4,1.5-0.7,2.2-1C45.7,6.7,47,6.4,49,6.4v3.7c0,0,0.7,0,1,0c0.3,0,1,0,1,0V6.4
		c2,0.1,3.3,0.4,4.8,0.8c0.3,0.1,0.6,0.2,0.9,0.3L55,11c0.6,0.2,1.2,0.5,1.7,0.8l1.6-3.4c1.7,0.9,3.3,2.1,4.7,3.5l-2.9,2.4
		c0.4,0.5,0.9,0.9,1.2,1.4l2.9-2.4c1.2,1.5,2.2,3.3,2.8,5.2l-3.7,1c0.2,0.6,0.4,1.2,0.5,1.8l3.7-1c0.3,1.3,0.5,2.7,0.5,4.1
		c0,0.6,0,1.3-0.1,1.9l-3.8-0.7c-0.1,0.6-0.2,1.3-0.3,1.9L67.7,28.1z M90.5,29.9L79.6,86.5C78.9,89.9,75.4,93,72,93H52v-5
		c0-1.1-0.9-2-2-2s-2,0.9-2,2v5H28c-3.4,0-6.9-3.1-7.6-6.5l-11-56.6c-0.1-0.4-0.1-0.8-0.1-1.2c0-2.9,2-5.9,4.9-6.7l17.3-5.2
		c-1,2.3-1.5,4.9-1.5,7.6c0,11,9,20,20,20c11,0,20-9,20-20c0-2.7-0.5-5.2-1.5-7.6L85.8,22c2.8,0.9,4.9,3.8,4.9,6.7
		C90.6,29.1,90.6,29.5,90.5,29.9z"/>
	<path class="st0" d="M51,22v-8c0-0.6-0.4-1-1-1c-0.6,0-1,0.4-1,1v8c-1,0.4-1.5,1.3-1.5,2.3c0,1.4,1.1,2.5,2.5,2.5s2.5-1.1,2.5-2.5
		C52.5,23.3,52,22.4,51,22z"/>
	<path class="st0" d="M78,51H22c-0.6,0-1,0.4-1,1s0.4,1,1,1h56c0.6,0,1-0.4,1-1S78.6,51,78,51z"/>
	<path class="st0" d="M77,59H23c-0.6,0-1,0.4-1,1s0.4,1,1,1h54c0.6,0,1-0.4,1-1S77.6,59,77,59z"/>
	<path class="st0" d="M76,67H24c-0.6,0-1,0.4-1,1s0.4,1,1,1h52c0.6,0,1-0.4,1-1S76.6,67,76,67z"/>
	<path class="st0" d="M75,75H25c-0.6,0-1,0.4-1,1s0.4,1,1,1h50c0.6,0,1-0.4,1-1S75.6,75,75,75z"/>
</g>
</svg>
