<?xml version="1.0" encoding="utf-8"?>
<!-- Generator: Adobe Illustrator 24.0.3, SVG Export Plug-In . SVG Version: 6.00 Build 0)  -->
<svg version="1.0" id="Camada_1" xmlns="http://www.w3.org/2000/svg" xmlns:xlink="http://www.w3.org/1999/xlink" x="0px" y="0px"
	 viewBox="0 0 1080 1920" style="enable-background:new 0 0 1080 1920;" xml:space="preserve">
<style type="text/css">
	.st0{fill:#FFFFFF;}
</style>
<g>
	<path class="st0" d="M1065.9,1367.3c-36,6-72.7,9-110,9c-121.3,0-233.7-30-337-90s-185-141.7-245-245s-90-215.7-90-337
		c0-128,34.7-247,104-357c-134,40-243.5,116.3-328.5,229S-68.1,817-68.1,960.3c0,86.7,17,169.5,51,248.5s79.5,147,136.5,204
		s125,102.5,204,136.5s161.8,51,248.5,51c96,0,187.2-20.5,273.5-61.5S1005.2,1440.6,1065.9,1367.3z M1268.9,1282.3
		c-62.7,135.3-157.2,243.5-283.5,324.5s-264.2,121.5-413.5,121.5c-104,0-203.3-20.3-298-61s-176.3-95.3-245-164
		s-123.3-150.3-164-245s-61-194-61-298c0-102,19.2-199.5,57.5-292.5s90.3-173.5,156-241.5s144.2-122.8,235.5-164.5
		s188-64.5,290-68.5c29.3-1.3,49.7,11.7,61,39c12,27.3,7,51.3-15,72c-57.3,52-101.2,112.5-131.5,181.5s-45.5,141.8-45.5,218.5
		c0,98.7,24.3,189.7,73,273s114.7,149.3,198,198s174.3,73,273,73c78.7,0,154.7-17,228-51c27.3-12,51.3-7.7,72,13
		c9.3,9.3,15.2,20.7,17.5,34S1274.2,1270.3,1268.9,1282.3z"/>
</g>
</svg>
